<?xml version="1.0" standalone="no"?><!DOCTYPE svg PUBLIC "-//W3C//DTD SVG 1.1//EN" "http://www.w3.org/Graphics/SVG/1.1/DTD/svg11.dtd"><svg t="1629848961823" class="icon" viewBox="0 0 1024 1024" version="1.1" xmlns="http://www.w3.org/2000/svg" p-id="3686" xmlns:xlink="http://www.w3.org/1999/xlink" width="48" height="48"><defs><style type="text/css"></style></defs><path d="M913.07 391.9V113.78H685.51v154.23L913.07 391.9z" fill="#e6e6e6" p-id="3687"></path><path d="M796.44 455.11v398.22H685.51V741c0-94.89-77.2-172.09-172.09-172.09S341.33 646.09 341.33 741v112.33H227.56V455.11h568.88m0-113.78H227.56a113.78 113.78 0 0 0-113.78 113.78v512h341.33V741a58.31 58.31 0 0 1 116.62 0v226.11h338.49v-512a113.78 113.78 0 0 0-113.78-113.78z" fill="#e6e6e6" p-id="3688"></path><path d="M512 152.23l212.74 189.1H299.26L512 152.23M512 0L0 455.11h1024L512 0z" fill="#e6e6e6" p-id="3689"></path></svg>